<svg aria-hidden="true" style="position:absolute;width:0;height:0;overflow:hidden" xmlns="http://www.w3.org/2000/svg"><defs>

<symbol id="icon-password" viewBox="0 0 32 32"><path fill="#fff" style="fill:var(--color1, #fff)" opacity=".4" d="M24 10.667h-1.333V8c0-3.68-2.987-6.667-6.667-6.667S9.333 4.32 9.333 8v2.667H8a2.675 2.675 0 0 0-2.667 2.667v13.333c0 1.467 1.2 2.667 2.667 2.667h16c1.467 0 2.667-1.2 2.667-2.667V13.334c0-1.467-1.2-2.667-2.667-2.667zm-8 12c-1.467 0-2.667-1.2-2.667-2.667s1.2-2.667 2.667-2.667c1.467 0 2.667 1.2 2.667 2.667s-1.2 2.667-2.667 2.667zm4.133-12h-8.267V8c0-2.28 1.853-4.133 4.133-4.133S20.132 5.72 20.132 8v2.667z"/></symbol>

<symbol id="icon-email" viewBox="0 0 32 32"><path fill="#fff" style="fill:var(--color1, #fff)" opacity=".4" d="M26.667 5.333H5.334A2.663 2.663 0 0 0 2.681 8l-.013 16c0 1.467 1.2 2.667 2.667 2.667h21.333c1.467 0 2.667-1.2 2.667-2.667V8c0-1.467-1.2-2.667-2.667-2.667zm0 5.334L16 17.334 5.333 10.667V8L16 14.667 26.667 8v2.667z"/></symbol>

<symbol id="icon-user" viewBox="0 0 32 32"><path fill="#fff" style="fill:var(--color1, #fff)" opacity=".4" d="M16 20c-4.227 0-7.986 2.041-10.379 5.208-.515.682-.773 1.022-.764 1.483.006.356.23.805.51 1.025.362.284.865.284 1.869.284h17.527c1.004 0 1.507 0 1.869-.284.28-.22.503-.669.51-1.025.008-.461-.249-.801-.764-1.483C23.985 22.041 20.226 20 15.999 20zM16 16a6 6 0 1 0 0-12 6 6 0 0 0 0 12z"/></symbol>

<symbol id="icon-close-btn" viewBox="0 0 32 32"><path fill="none" stroke="#fbfbfb" style="stroke:var(--color2, #fbfbfb)" stroke-width="1.778" d="m1.778 1.778 28.444 28.444M1.778 30.222 30.222 1.778"/></symbol>

<symbol id="icon-arrow-down" viewBox="0 0 32 32"><path fill="none" stroke="#fbfbfb" style="stroke:var(--color2, #fbfbfb)" stroke-width="1.6" d="M30.4 8.8 16 23.2 1.6 8.8"/></symbol>

<symbol id="icon-arrow-up" viewBox="0 0 32 32"><path fill="none" stroke="#fbfbfb" style="stroke:var(--color2, #fbfbfb)" stroke-width="1.6" d="M30.4 23.2 16 8.8 1.6 23.2"/></symbol>

<symbol id="icon-minus" viewBox="0 0 32 32"><path fill="none" stroke="#fff" style="stroke:var(--color1, #fff)" stroke-width="3.2" d="M0 16h32"/></symbol>

<symbol id="icon-calendar" viewBox="0 0 32 32"><path fill="#734aef" style="fill:var(--color3, #734aef)" d="M11.2 14.4H8v3.2h3.2v-3.2zm6.4 0h-3.2v3.2h3.2v-3.2zm6.4 0h-3.2v3.2H24v-3.2zm3.2-11.2h-1.6V0h-3.2v3.2H9.6V0H6.4v3.2H4.8a3.185 3.185 0 0 0-3.184 3.2L1.6 28.8A3.2 3.2 0 0 0 4.8 32h22.4c1.76 0 3.2-1.44 3.2-3.2V6.4c0-1.76-1.44-3.2-3.2-3.2zm0 25.6H4.8V11.2h22.4v17.6z"/></symbol>

<symbol id="icon-plus" viewBox="0 0 32 32"><path fill="none" stroke="#fbfbfb" style="stroke:var(--color2, #fbfbfb)" stroke-width="3.2" d="M16 0v32M0 16h32"/></symbol>

<symbol id="icon-edit-pen" viewBox="0 0 32 32"><path fill="none" stroke="#fff" style="stroke:var(--color1, #fff)" stroke-linejoin="round" stroke-linecap="round" stroke-width="2.56" d="m23.467 13.511-4.978-4.978M4.178 27.823l4.212-.468c.515-.057.772-.086 1.012-.164.213-.069.416-.167.604-.29.211-.139.394-.322.76-.688L27.201 9.779a3.52 3.52 0 1 0-4.978-4.978L5.789 21.235c-.366.366-.549.549-.688.76a2.49 2.49 0 0 0-.29.604c-.078.24-.106.498-.164 1.012l-.468 4.212z"/></symbol>

<symbol id="icon-exit" viewBox="0 0 32 32">
<path fill="#fff" style="fill: var(--color1, #fff)" opacity="0.6" d="M20.051 23.237h2.499v4.997c0 2.067-1.681 3.748-3.748 3.748h-15.054c-2.066 0-3.748-1.681-3.748-3.748v-24.486c0-2.066 1.681-3.748 3.748-3.748h15.054c2.067 0 3.748 1.681 3.748 3.748v4.997h-2.499v-4.997c0-0.689-0.56-1.249-1.249-1.249h-15.054c-0.689 0-1.249 0.561-1.249 1.249v24.486c0 0.689 0.561 1.249 1.249 1.249h15.054c0.689 0 1.249-0.561 1.249-1.249v-4.997zM26.111 10.102l-1.767 1.767 2.873 2.874h-16.161v2.499h16.161l-2.873 2.873 1.767 1.767 5.889-5.889-5.889-5.89z"></path>
</symbol>

<symbol id="icon-statistic" viewBox="0 0 32 32">
<path d="M3.556 0h24.889c1.964 0 3.556 1.592 3.556 3.556v24.889c0 1.964-1.592 3.556-3.556 3.556h-24.889c-1.964 0-3.556-1.592-3.556-3.556v-24.889c0-1.964 1.592-3.556 3.556-3.556zM26.182 13.63c1.244 0 2.263-1.067 2.263-2.37s-1.018-2.37-2.263-2.37c-1.244 0-2.263 1.067-2.263 2.37 0 0.213 0.023 0.415 0.079 0.604l-4.016 4.219c-0.181-0.059-0.385-0.083-0.588-0.083s-0.407 0.024-0.588 0.083l-2.885-3.022c0.057-0.19 0.079-0.403 0.079-0.616 0-1.304-1.018-2.37-2.263-2.37s-2.263 1.067-2.263 2.37c0 0.213 0.023 0.427 0.079 0.616l-5.159 5.393c-0.181-0.059-0.373-0.083-0.577-0.083-1.244 0-2.263 1.067-2.263 2.37s1.018 2.37 2.263 2.37 2.263-1.067 2.263-2.37c0-0.213-0.023-0.415-0.079-0.604l5.147-5.404c0.181 0.059 0.385 0.083 0.588 0.083s0.407-0.024 0.588-0.083l2.885 3.022c-0.057 0.19-0.079 0.403-0.079 0.616 0 1.304 1.018 2.37 2.263 2.37s2.263-1.067 2.263-2.37c0-0.213-0.023-0.427-0.079-0.616l4.027-4.207c0.181 0.059 0.373 0.083 0.577 0.083z"></path>
</symbol>

<symbol id="icon-home" viewBox="0 0 32 32">
<path d="M3.556 0c-1.964 0-3.556 1.592-3.556 3.556v24.889c0 1.964 1.592 3.556 3.556 3.556h24.889c1.964 0 3.556-1.592 3.556-3.556v-24.889c0-1.964-1.592-3.556-3.556-3.556h-24.889zM13.867 17.987v6.902h-5.333v-9.203h-3.2l10.667-10.353 10.667 10.353h-3.2v9.203h-5.333v-6.902h-4.267z"></path>
</symbol>

<symbol id="icon-logo-mob" viewBox="0 0 32 32"><path fill="#ffc727" style="fill:var(--color4, #ffc727)" d="M21.609 4.741c-2.137-.534-4.274-1.603-5.876-3.205-1.603 1.603-3.739 2.671-5.876 3.205.534 4.808 2.137 8.013 5.876 10.684 3.739-2.671 5.876-5.876 5.876-10.684z"/><path fill="#fbfbfb" style="fill:var(--color2, #fbfbfb)" d="M19.472 24.631 4.514 7.002v8.547l11.752 13.355 3.205-4.274zM21.075 23.029l6.41-7.479V7.537l-10.15 11.752 3.739 3.739zM21.609 25.7v4.808l5.876-6.945v-4.808L21.609 25.7zM10.391 25.7l-5.876-6.945v4.808l5.876 6.945V25.7z"/></symbol>

<symbol id="icon-currency" viewBox="0 0 32 32">
<path d="M5.053 0c-2.791 0-5.053 2.262-5.053 5.053v21.895c0 2.79 2.262 5.053 5.053 5.053h21.895c2.79 0 5.053-2.262 5.053-5.053v-21.895c0-2.791-2.262-5.053-5.053-5.053h-21.895zM13.265 13.136c0 0.995 0.765 1.635 3.144 2.253s4.925 1.635 4.925 4.61c0 2.148-1.624 3.332-3.667 3.72v2.253h-3.143v-2.274c-2.012-0.43-3.73-1.718-3.856-4.013h2.305c0.115 1.236 0.964 2.2 3.123 2.2 2.316 0 2.829-1.153 2.829-1.876 0-0.974-0.524-1.896-3.143-2.525-2.923-0.702-4.925-1.907-4.925-4.327 0-2.022 1.635-3.342 3.667-3.783v-2.263h3.143v2.295c2.19 0.534 3.29 2.19 3.363 3.992h-2.316c-0.063-1.31-0.754-2.2-2.619-2.2-1.771 0-2.829 0.796-2.829 1.938z"></path>
</symbol>
<symbol id="icon-Vector-beetween-logo" viewBox="0 0 2 32">
<path fill="none"  stroke="#fff" style="stroke: var(--color1, #fff)" stroke-linejoin="miter" stroke-linecap="butt" stroke-miterlimit="4" stroke-width="1.0667" d="M1.067 0v32"></path>
</symbol>

<symbol id="icon-logo-deskt-tab" viewBox="0 0 32 32"><path fill="#ffc727" style="fill:var(--color4, #ffc727)" d="M21.94 4.396c-2.263-.566-4.526-1.698-6.223-3.397-1.697 1.698-3.96 2.83-6.223 3.397.566 5.095 2.263 8.491 6.223 11.322 3.96-2.831 6.223-6.227 6.223-11.322z"/><path fill="#fbfbfb" style="fill:var(--color2, #fbfbfb)" d="M19.677 25.474 3.837 6.793v9.057l12.446 14.152 3.394-4.529zM21.374 23.776l6.789-7.925V7.36L17.414 19.814l3.96 3.963zM21.94 26.606v5.095l6.223-7.359v-5.095l-6.223 7.359zM10.06 26.606l-6.223-7.359v5.095l6.223 7.359v-5.095z"/></symbol></defs></svg>

